<svg width="265" height="155" viewBox="0 0 265 155" fill="none" xmlns="http://www.w3.org/2000/svg">
<path d="M169.947 83.838C169.946 79.6139 168.978 76.7187 166.988 74.9898C164.181 72.5403 160.305 73.1213 156.572 73.6683L155.693 73.7969C154.685 73.9455 153.659 73.8715 152.683 73.58C151.708 73.2886 150.809 72.7867 150.047 72.1093C147.481 69.8172 145.668 66.056 143.597 61.7042C141.144 56.5938 138.367 50.8026 133.51 45.6143C127.879 39.5903 120.533 35.5925 111.075 33.3966L111.038 33.3914C101.361 30.8327 91.4141 29.4466 81.407 29.2624C71.7426 28.8095 63.6171 30.6333 56.562 34.8747C50.4706 38.5301 46.2274 43.3353 42.4657 47.5701C39.2639 51.1848 36.4972 54.3057 33.4012 55.8064C32.4828 56.2488 31.4799 56.4847 30.4623 56.4976C29.4446 56.5105 28.4368 56.3 27.5091 55.8809L26.6985 55.516C23.2507 53.9606 19.6828 52.339 16.3115 53.9247C13.9232 55.0414 12.1983 57.5602 11.0389 61.6221C10.1938 64.5641 9.84116 67.6264 9.99538 70.6832C10.4499 79.6147 15.1496 86.7122 22.2614 89.202C25.9935 90.4937 30.064 90.4001 33.7381 88.9381C32.3814 92.657 31.7596 96.6054 31.9077 100.562C32.2262 108.645 35.7318 116.126 41.7841 121.627C47.7356 127.036 55.4202 129.963 63.6338 130C64.3213 132.139 65.904 136.003 69.428 141.068L69.9869 141.86L91.2588 144.834L92.0135 144.225C96.8002 140.322 99.3752 137.04 100.623 135.169C102.102 135.586 103.608 135.903 105.129 136.118C111.551 137.04 118.104 135.992 123.931 133.112C131.249 129.466 136.673 123.241 139.194 115.554C140.423 111.79 140.909 107.823 140.624 103.874C143.756 106.288 147.645 107.494 151.588 107.276C159.11 106.832 165.576 101.295 168.462 92.8307C169.448 89.9356 169.95 86.8968 169.947 83.838ZM89.9577 140.154L82.8773 139.164L82.1588 132.345L79.5976 138.706L72.5172 137.716C70.181 134.245 68.909 131.496 68.2329 129.706C73.6444 129.025 78.8179 127.054 83.3226 123.956C86.805 128.17 91.2395 131.485 96.2568 133.624C95.1404 135.159 93.1646 137.445 89.9577 140.154ZM164.279 91.3948C161.953 98.2174 157.116 102.495 151.336 102.834C145.964 103.15 141.129 99.9074 138.404 94.1572C138.399 94.1462 138.393 94.1356 138.386 94.1255L138.154 93.644C137.909 93.1085 137.462 92.6933 136.912 92.4898C136.361 92.2864 135.753 92.3112 135.22 92.5589C134.687 92.8066 134.274 93.2569 134.071 93.8108C133.867 94.3646 133.891 94.9765 134.136 95.512C136.66 101.537 136.966 108.162 134.997 114.168C133.932 117.409 132.229 120.402 129.991 122.97C127.753 125.538 125.026 127.627 121.97 129.114C115.174 132.489 107.305 132.896 99.8606 130.263C94.1193 128.256 89.1264 124.534 85.5485 119.594C85.374 119.353 85.1531 119.15 84.8988 118.997C84.6445 118.844 84.362 118.743 84.0683 118.702C83.7745 118.661 83.4754 118.68 83.1888 118.758C82.9023 118.835 82.6341 118.97 82.4002 119.154C77.6047 122.923 71.7824 125.133 65.7109 125.489C57.8301 125.977 50.3737 123.43 44.7599 118.32C42.2293 116.052 40.179 113.295 38.731 110.211C37.283 107.128 36.4669 103.783 36.3313 100.374C36.0942 94.0866 38.1784 87.832 42.2287 82.7303C42.5886 82.2813 42.7613 81.7096 42.7105 81.1357C42.6597 80.5618 42.3893 80.0305 41.9563 79.6538C41.5234 79.2771 40.9617 79.0843 40.3895 79.1162C39.8174 79.1481 39.2796 79.4021 38.8894 79.8247L38.5846 80.1527L38.5425 80.1984C34.3449 84.9809 28.8038 86.7752 23.7266 84.9964C18.2619 83.0827 14.7836 77.6426 14.417 70.4458C14.2875 67.8818 14.5818 65.3134 15.2877 62.8448C16.052 60.1716 17.0383 58.4816 18.1684 57.9659C19.7112 57.2451 22.2181 58.3771 24.8631 59.5755L25.6925 59.9497C27.2075 60.632 28.8529 60.9736 30.5138 60.9506C32.1747 60.9276 33.8112 60.5406 35.3093 59.8166C39.2005 57.9286 42.3861 54.3341 45.7595 50.53C53.1453 42.1983 61.518 32.7471 81.2168 33.7046L81.2825 33.7138C90.9823 33.8909 100.624 35.2388 110 37.7286L110.171 37.766C129.339 42.2556 134.794 53.6243 139.607 63.6637C141.807 68.2379 143.884 72.5704 147.109 75.4601C148.35 76.5655 149.816 77.3853 151.405 77.8626C152.994 78.3399 154.668 78.4632 156.31 78.224L157.221 78.0931C160.102 77.6673 162.824 77.2663 164.101 78.3812C165.037 79.1859 165.53 81.0916 165.532 83.8698C165.53 86.4297 165.106 88.9724 164.279 91.3948Z" fill="#3D1F5A"/>
<path d="M74.734 98.5319C75.0383 99.1134 75.4124 99.6552 75.8478 100.145C75.94 100.268 76.0584 100.379 76.1603 100.496C76.2622 100.614 76.3647 100.727 76.4768 100.835C76.7106 101.047 76.9046 101.272 77.1448 101.469C78.0432 102.28 79.0056 103.015 80.0227 103.668C80.5056 104.014 81.0496 104.306 81.5469 104.629L83.1184 105.522C83.6627 105.796 84.1905 106.092 84.7292 106.374C85.268 106.656 85.8273 106.918 86.3704 107.201L85.013 107.011C85.6107 106.887 86.2117 106.771 86.816 106.664C87.4114 106.54 88.0005 106.398 88.599 106.284L90.3553 105.856C90.6418 105.77 90.9318 105.692 91.2221 105.611C91.5124 105.53 91.7974 105.44 92.0845 105.35L92.5142 105.215C92.6588 105.17 92.8054 105.127 92.9406 105.07C93.2206 104.968 93.5008 104.863 93.7892 104.764L94.6255 104.418C94.9129 104.31 95.168 104.162 95.4514 104.035C95.7347 103.909 95.9845 103.751 96.2675 103.611C96.4052 103.536 96.5307 103.452 96.6647 103.372C96.7986 103.292 96.9391 103.213 97.0637 103.12C97.6161 102.768 98.1242 102.351 98.5769 101.876C98.5378 102.592 98.3427 103.29 98.0053 103.921C97.9312 104.085 97.8463 104.244 97.7512 104.397C97.6605 104.551 97.5712 104.711 97.4633 104.86C97.3554 105.009 97.2551 105.152 97.1497 105.299C97.0462 105.447 96.9354 105.59 96.8176 105.726C96.7022 105.865 96.5812 105.997 96.4605 106.126C96.344 106.264 96.2204 106.397 96.0902 106.523C95.8324 106.77 95.5738 107.023 95.2979 107.257C95.022 107.49 94.7385 107.697 94.4532 107.918C94.1679 108.138 93.8666 108.314 93.5668 108.51C92.9685 108.888 92.3483 109.229 91.7096 109.533C91.3947 109.693 91.072 109.814 90.7581 109.952C90.4441 110.09 90.1089 110.221 89.7821 110.339C89.125 110.553 88.4633 110.768 87.7973 110.949C87.1314 111.129 86.4601 111.253 85.7866 111.393L85.0683 111.533L84.426 111.194C83.8175 110.884 83.2127 110.548 82.6145 110.213C82.0162 109.878 81.4463 109.468 80.8767 109.072C80.5948 108.868 80.3198 108.648 80.0464 108.432C79.773 108.217 79.4968 108.005 79.2355 107.766C78.7049 107.298 78.2023 106.799 77.7302 106.271L77.3763 105.881C77.2566 105.749 77.144 105.611 77.039 105.467C76.8226 105.179 76.6103 104.893 76.4055 104.602C76.2007 104.311 76.0271 103.988 75.847 103.679C75.7558 103.523 75.6726 103.361 75.5977 103.196C75.5201 103.032 75.4397 102.873 75.3659 102.714C75.2921 102.555 75.2273 102.38 75.1641 102.21C75.1009 102.039 75.037 101.873 74.9826 101.704C74.9281 101.534 74.8865 101.353 74.8326 101.18C74.7841 101.006 74.7461 100.83 74.7189 100.652C74.5698 99.9529 74.575 99.2292 74.734 98.5319Z" fill="#3D1F5A"/>
<path d="M122.3 92.7007C121.686 91.3094 121.017 89.9621 120.293 88.6588C119.292 86.848 118.198 85.1053 117.033 83.4175C118.614 82.1139 120.141 80.7397 121.601 79.2708C122.654 78.2204 123.666 77.1088 124.637 75.936C125.118 75.3476 125.595 74.7517 126.05 74.1283C126.518 73.4999 126.953 72.8471 127.353 72.1725C126.599 72.3737 125.856 72.6155 125.128 72.8968C124.406 73.1663 123.71 73.4643 123.011 73.7685C121.63 74.3883 120.29 75.0626 118.992 75.7913C117.199 76.799 115.457 77.8963 113.773 79.0791C112.478 77.4878 111.112 75.9517 109.654 74.4859C108.611 73.4284 107.508 72.4125 106.343 71.4383C105.759 70.9547 105.168 70.4767 104.548 70.0197C103.925 69.5498 103.276 69.1136 102.606 68.7129C102.805 69.4716 103.045 70.2188 103.324 70.9511C103.589 71.6753 103.884 72.3767 104.186 73.0769C104.8 74.4652 105.469 75.8118 106.192 77.1166C107.189 78.9171 108.275 80.6661 109.446 82.3569C107.862 83.6603 106.333 85.0363 104.873 86.503C103.82 87.5535 102.808 88.6658 101.838 89.84C101.356 90.4284 100.88 91.0243 100.426 91.6503C99.9586 92.2795 99.5245 92.9332 99.1256 93.6085C99.8804 93.4078 100.624 93.1669 101.354 92.887C102.076 92.6198 102.772 92.3218 103.471 92.0175C104.853 91.4009 106.196 90.7256 107.5 89.9916C109.302 88.9815 111.034 87.8807 112.714 86.7053C114.004 88.3031 115.374 89.8347 116.818 91.2943C117.86 92.3517 118.964 93.3677 120.13 94.3421C120.715 94.8257 121.306 95.3037 121.928 95.7589C122.553 96.2281 123.202 96.6637 123.873 97.0637C123.674 96.3049 123.436 95.5573 123.159 94.8239C122.894 94.1019 122.599 93.3983 122.3 92.7007Z" fill="#3D1F5A"/>
<path d="M74.8911 86.0727C74.273 84.6824 73.6086 83.3357 72.8979 82.0327C71.8965 80.2219 70.8031 78.4792 69.6373 76.7914C71.2273 75.4866 72.7513 74.1025 74.2037 72.6444C75.2568 71.594 76.2693 70.4825 77.2413 69.3099C77.7231 68.7215 78.1993 68.1256 78.6526 67.5019C79.1223 66.8742 79.5578 66.2215 79.9572 65.5464C79.203 65.748 78.4599 65.9897 77.731 66.2704C77.0102 66.5402 76.3123 66.8378 75.6157 67.1424C74.2344 67.7622 72.8946 68.4365 71.5963 69.1652C69.7922 70.175 68.0577 71.2776 66.3755 72.4527C65.0805 70.8534 63.7065 69.3205 62.2587 67.8598C61.216 66.8023 60.1125 65.7864 58.9481 64.8122C58.3639 64.3286 57.7723 63.8506 57.1509 63.3933C56.528 62.9231 55.8804 62.487 55.2108 62.0868C55.41 62.8451 55.6491 63.5921 55.927 64.3247C56.194 65.0492 56.4888 65.7507 56.7905 66.4508C57.4044 67.8391 58.0726 69.1856 58.7949 70.4902C59.796 72.3031 60.8875 74.0434 62.0511 75.7308C60.4671 77.0342 58.9377 78.4102 57.4782 79.8769C56.4251 80.9274 55.4124 82.0396 54.4403 83.2136C53.9606 83.8023 53.4845 84.3982 53.0309 85.0242C52.5633 85.6534 52.1292 86.3071 51.7303 86.9824C52.4851 86.7817 53.2289 86.5408 53.9584 86.2609C54.6811 85.9937 55.3767 85.6957 56.0755 85.3914C57.4579 84.7748 58.7984 84.1006 60.0971 83.369C61.8878 82.3617 63.6272 81.2648 65.3089 80.0824C66.6021 81.6735 67.9658 83.207 69.4216 84.6726C70.4643 85.73 71.5685 86.746 72.7344 87.7204C73.3186 88.204 73.9102 88.682 74.5319 89.1372C75.1567 89.6064 75.8059 90.042 76.4767 90.4421C76.2783 89.6832 76.0401 88.9355 75.763 88.2022C75.4854 87.474 75.1931 86.7707 74.8911 86.0727Z" fill="#3D1F5A"/>
<path d="M192.788 26.5995C189.91 28.6515 184.824 30.5449 179.627 30.8792C174.804 31.1972 169.158 30.2105 168.541 31.7377C168.448 31.9764 168.466 32.2469 168.653 32.5813C170.186 35.5081 179.309 34.2833 185.311 37.1145C194.602 41.5047 196.116 55.6789 196.845 62.631C197.369 67.5142 197.388 75.0705 199.07 75.2136C199.313 75.2299 199.519 75.1024 199.613 75.0387C201.613 73.6709 202.604 46.1818 207.932 40.5187C209.203 39.1665 211.11 36.844 214.662 35.0944C221.261 31.8333 229.3 32.4063 229.45 30.7198C229.469 30.5923 229.432 30.4336 229.226 30.1631C227.076 27.4431 218.925 29.4151 214.27 27.1881C205.352 22.9248 203.127 0.320141 202.623 0.113314C202.305 -0.0141643 202.118 -0.0141643 201.894 0.0177053C197.687 0.510708 203.09 19.2344 192.788 26.5995Z" fill="#FFEEDD"/>
<path d="M204.993 102.322C201.056 98.67 194.235 101.188 190.635 96.5381C190.277 96.0837 190.066 95.6757 190.108 95.2454C190.36 92.5237 199.877 94.7011 204.867 89.7335C211.393 83.2237 207.309 67.2796 210.257 66.7807C210.467 66.7352 210.636 66.8038 210.93 66.917C215.689 68.8458 210.952 83.8367 216.973 88.9629C220.341 91.8199 226.741 91.2988 230.594 94.9051C230.826 95.1091 231.142 95.4494 231.121 95.8574C231.016 97.9902 222.152 96.2886 217.183 100.824C210.235 107.175 213.204 123.596 211.183 123.687C211.141 123.687 211.057 123.687 210.909 123.596C207.457 121.645 210.446 107.402 204.993 102.322Z" fill="#AED9E0"/>
<path d="M235.153 59.0669C241.322 54.8672 236.779 42.6183 241.303 41.616C241.546 41.5679 241.771 41.5204 242.051 41.5679C245.604 42.2833 240.35 56.2188 246.856 60.8958C252.184 64.7136 263.775 61.182 264.243 63.139C264.28 63.2502 264.243 63.3458 264.205 63.4733C263.495 66.0977 255.287 65.9227 250.577 68.4677C240.593 73.8764 243.771 92.9026 240.836 92.9026C240.78 92.9026 240.724 92.8863 240.611 92.8545C235.676 91.5816 240.406 76.2153 232.05 69.4063C226.665 65.0317 216.85 65.0161 217.093 62.7254C217.093 62.646 217.131 62.4867 217.317 62.2161C219.635 58.8913 229.993 62.5985 235.153 59.0669Z" fill="#FFA69E"/>
</svg>
